<svg width="69" height="36" viewBox="0 0 69 36" fill="none" xmlns="http://www.w3.org/2000/svg">
<rect width="69" height="36" fill="#F5F5F5"/>
<g id="New Screen 1" clip-path="url(#clip0_0_1)">
<path id="Vector" d="M862 -384H-578V1287H862V-384Z" fill="#ECECFD"/>
<path id="Rectangle 2" d="M14.34 66.6501C14.0926 59.2654 9.344 52.7872 2.37621 50.3286L-0.551785 49.2954C-24.6645 40.7871 -18.1448 5.04382 7.41902 5.59661L40.0653 6.30255C59.2941 6.71835 71.5793 26.9685 63.0658 44.2149L48.3664 73.9924C40.106 90.726 14.9651 85.301 14.34 66.6501Z" fill="#FF50C0"/>
<g id="Frame 1">
<path id="Rectangle 4" d="M43.3308 -91.2384C36.9129 -90.7929 30.4105 -88.8633 26.1486 -84.0441C11.6013 -67.5945 22.6508 -48.806 38.9931 -44.2842C42.9622 -43.1861 47.1396 -43.9308 51.0681 -45.1662L59.9322 -47.9539C63.3298 -49.0223 66.8705 -49.566 70.4321 -49.566L96.0584 -49.566L140.423 -44.8645L224.558 -43.2986C253.38 -40.4524 267.429 -71.7815 246.687 -89.1968C227.178 -105.102 191.694 -84.1773 166.841 -80.1858C146.196 -76.8701 117.467 -85.6565 89.3395 -92.7543C85.843 -93.6366 82.2272 -93.9388 78.6298 -93.6891L43.3308 -91.2384Z" fill="#00F565"/>
</g>
<path id="Vector_2" d="M56.953 0H11.3906C5.09974 0 0 4.47715 0 10V26C0 31.5228 5.09974 36 11.3906 36H56.953C63.2438 36 68.3436 31.5228 68.3436 26V10C68.3436 4.47715 63.2438 0 56.953 0Z" fill="#131237"/>
<path id="Easy" d="M25.3722 21.9268V23H21.0519V21.9268H25.3722ZM21.2775 13.0469V23H20.0197V13.0469H21.2775ZM24.7912 17.3262V18.3994H21.0519V17.3262H24.7912ZM25.3039 13.0469V14.127H21.0519V13.0469H25.3039ZM30.4377 21.7354V17.7227C30.4377 17.431 30.3921 17.1963 30.3009 17.0186C30.2143 16.8408 30.0822 16.7109 29.9045 16.6289C29.7313 16.5469 29.5125 16.5059 29.2482 16.5059C28.993 16.5059 28.772 16.5583 28.5851 16.6631C28.4028 16.7679 28.2615 16.9069 28.1613 17.0801C28.0656 17.2533 28.0177 17.4447 28.0177 17.6543H26.8078C26.8078 17.39 26.8647 17.1279 26.9787 16.8682C27.0972 16.6084 27.2658 16.3737 27.4845 16.1641C27.7033 15.9499 27.9653 15.7812 28.2707 15.6582C28.5806 15.5306 28.9269 15.4668 29.3097 15.4668C29.7655 15.4668 30.1688 15.542 30.5197 15.6924C30.8706 15.8382 31.1463 16.0775 31.3468 16.4102C31.5474 16.7428 31.6476 17.1849 31.6476 17.7363V21.3867C31.6476 21.6328 31.6658 21.8949 31.7023 22.1729C31.7433 22.4508 31.8003 22.6901 31.8732 22.8906V23H30.6222C30.563 22.8542 30.5174 22.6605 30.4855 22.4189C30.4536 22.1729 30.4377 21.945 30.4377 21.7354ZM30.6291 18.5156L30.6427 19.4043H29.8019C29.5148 19.4043 29.2528 19.4362 29.0158 19.5C28.7834 19.5638 28.5828 19.6572 28.4142 19.7803C28.2456 19.8988 28.1157 20.0469 28.0246 20.2246C27.938 20.4023 27.8947 20.6051 27.8947 20.833C27.8947 21.1292 27.9357 21.3662 28.0177 21.5439C28.0998 21.7171 28.2228 21.8424 28.3869 21.9199C28.5509 21.9974 28.7583 22.0361 29.0089 22.0361C29.3143 22.0361 29.5832 21.9655 29.8156 21.8242C30.048 21.6829 30.228 21.512 30.3556 21.3115C30.4878 21.111 30.5493 20.9242 30.5402 20.751L30.8068 21.3184C30.7886 21.4961 30.7293 21.6898 30.6291 21.8994C30.5334 22.1045 30.3989 22.3027 30.2257 22.4941C30.0526 22.681 29.8475 22.8359 29.6105 22.959C29.3781 23.0775 29.116 23.1367 28.8244 23.1367C28.396 23.1367 28.02 23.0547 27.6964 22.8906C27.3774 22.7266 27.1291 22.485 26.9513 22.166C26.7736 21.847 26.6847 21.4528 26.6847 20.9834C26.6847 20.6279 26.7462 20.2998 26.8693 19.999C26.9923 19.6982 27.1746 19.4385 27.4162 19.2197C27.6577 18.9964 27.9608 18.8232 28.3253 18.7002C28.6945 18.5771 29.1206 18.5156 29.6037 18.5156H30.6291ZM37.1164 21.1064C37.1164 20.9196 37.0708 20.7555 36.9796 20.6143C36.8885 20.473 36.7381 20.3363 36.5285 20.2041C36.3234 20.0719 36.0454 19.9307 35.6945 19.7803C35.3527 19.639 35.0451 19.5 34.7716 19.3633C34.5028 19.222 34.2749 19.0693 34.088 18.9053C33.9012 18.7412 33.7576 18.5521 33.6574 18.3379C33.5617 18.1191 33.5138 17.8617 33.5138 17.5654C33.5138 17.2692 33.5685 16.9958 33.6779 16.7451C33.7918 16.4899 33.9513 16.2666 34.1564 16.0752C34.3615 15.8838 34.6076 15.7357 34.8947 15.6309C35.1818 15.5215 35.5031 15.4668 35.8586 15.4668C36.3644 15.4668 36.7951 15.5648 37.1505 15.7607C37.506 15.9567 37.7772 16.2256 37.964 16.5674C38.1554 16.9046 38.2511 17.2852 38.2511 17.709H37.048C37.048 17.5039 37.0024 17.3102 36.9113 17.1279C36.8201 16.9456 36.6857 16.7975 36.508 16.6836C36.3302 16.5651 36.1138 16.5059 35.8586 16.5059C35.5897 16.5059 35.3709 16.5537 35.2023 16.6494C35.0337 16.7451 34.9106 16.8704 34.8332 17.0254C34.7602 17.1758 34.7238 17.3421 34.7238 17.5244C34.7238 17.6611 34.742 17.7796 34.7785 17.8799C34.8195 17.9756 34.8878 18.0667 34.9836 18.1533C35.0793 18.2354 35.2091 18.3219 35.3732 18.4131C35.5418 18.4997 35.756 18.5999 36.0158 18.7139C36.5171 18.9098 36.9386 19.1081 37.2804 19.3086C37.6222 19.5091 37.882 19.7438 38.0597 20.0127C38.2375 20.2816 38.3263 20.6143 38.3263 21.0107C38.3263 21.3343 38.2671 21.6283 38.1486 21.8926C38.0347 22.1523 37.8706 22.3757 37.6564 22.5625C37.4422 22.7493 37.1847 22.8929 36.8839 22.9932C36.5877 23.0889 36.255 23.1367 35.8859 23.1367C35.3299 23.1367 34.8582 23.0273 34.4709 22.8086C34.088 22.5853 33.7964 22.2959 33.5959 21.9404C33.3999 21.5804 33.3019 21.1953 33.3019 20.7852H34.5119C34.5255 21.1315 34.603 21.4004 34.7443 21.5918C34.8901 21.7832 35.0656 21.9154 35.2707 21.9883C35.4757 22.0612 35.6808 22.0977 35.8859 22.0977C36.1548 22.0977 36.3804 22.0589 36.5627 21.9814C36.7449 21.8994 36.8817 21.7832 36.9728 21.6328C37.0685 21.4824 37.1164 21.307 37.1164 21.1064ZM41.6281 22.2344L43.2755 15.6035H44.5607L42.1203 24.1416C42.061 24.3239 41.9813 24.5199 41.881 24.7295C41.7853 24.9437 41.6623 25.1465 41.5119 25.3379C41.3615 25.5293 41.1815 25.6842 40.9718 25.8027C40.7622 25.9258 40.5161 25.9873 40.2336 25.9873C40.147 25.9873 40.0353 25.9736 39.8986 25.9463C39.7664 25.9189 39.6707 25.8962 39.6115 25.8779V24.8525C39.6388 24.8571 39.6821 24.8617 39.7414 24.8662C39.8006 24.8753 39.8439 24.8799 39.8712 24.8799C40.1082 24.8799 40.3087 24.8411 40.4728 24.7637C40.6414 24.6908 40.785 24.5654 40.9035 24.3877C41.022 24.2145 41.1222 23.9753 41.2043 23.6699L41.6281 22.2344ZM40.5617 15.6035L42.0314 21.3457L42.3459 22.6787L41.4845 23.1436L39.2423 15.6035H40.5617Z" fill="#ECECFD"/>
</g>
<defs>
<clipPath id="clip0_0_1">
<rect width="1440" height="1671" fill="white" transform="translate(-578 -384)"/>
</clipPath>
</defs>
</svg>
