<svg width="238" height="106" viewBox="0 0 238 53" fill="none" xmlns="http://www.w3.org/2000/svg">
<path id="Rectangle 4" d="M24.3308 4.76158C17.9129 5.20714 11.4105 7.13674 7.14857 11.9559C-7.39874 28.4055 3.65077 47.194 19.9931 51.7158C23.9622 52.8139 28.1396 52.0692 32.0681 50.8338L40.9322 48.0461C44.3298 46.9777 47.8705 46.434 51.4321 46.434L77.0584 46.434L121.423 51.1355L205.558 52.7014C234.38 55.5476 248.429 24.2185 227.687 6.80324C208.178 -9.10223 172.694 11.8227 147.841 15.8142C127.196 19.1299 98.467 10.3435 70.3395 3.24573C66.843 2.3634 63.2272 2.06119 59.6298 2.31094L24.3308 4.76158Z" fill="#00F565"/>
</svg>
